PathFileType	4	(X/Y/Z)	/home/nbianco/projects/addbio/data/OpenCap2022/Processed/subject2//results/MarkerData/squats1.trc
DataRate	CameraRate	NumFrames	NumMarkers	Units	OrigDataRate	OrigDataStartFrame	OrigNumFrames
100	100	8	51	m	100	0	801
Frame#	Time	C7			L.ASIS			L.PSIS			L_5meta			L_HJC			L_HJC_reg			L_Shoulder			L_Sternum			L_ankle			L_calc			L_elbow_lat			L_elbow_med			L_forearm			L_humerus			L_knee			L_sh2			L_sh3			L_shank_antsup			L_thigh1			L_thigh2			L_thigh3			L_thigh4			L_toe			L_wrist_radius			L_wrist_ulna			R_HJC			R_HJC_reg			R_Shoulder			R_Sternum			R_elbow_lat			R_elbow_med			R_forearm			R_humerus			R_wrist_radius			R_wrist_ulna			r.ASIS			r.PSIS			r_5meta			r_ankle			r_calc			r_knee			r_sh2			r_sh3			r_sh4			r_shank_antsup			r_thigh1			r_thigh2			r_thigh3			r_thigh4			r_thigh5			r_toe		
		X1	Y1	Z1	X2	Y2	Z2	X3	Y3	Z3	X4	Y4	Z4	X5	Y5	Z5	X6	Y6	Z6	X7	Y7	Z7	X8	Y8	Z8	X9	Y9	Z9	X10	Y10	Z10	X11	Y11	Z11	X12	Y12	Z12	X13	Y13	Z13	X14	Y14	Z14	X15	Y15	Z15	X16	Y16	Z16	X17	Y17	Z17	X18	Y18	Z18	X19	Y19	Z19	X20	Y20	Z20	X21	Y21	Z21	X22	Y22	Z22	X23	Y23	Z23	X24	Y24	Z24	X25	Y25	Z25	X26	Y26	Z26	X27	Y27	Z27	X28	Y28	Z28	X29	Y29	Z29	X30	Y30	Z30	X31	Y31	Z31	X32	Y32	Z32	X33	Y33	Z33	X34	Y34	Z34	X35	Y35	Z35	X36	Y36	Z36	X37	Y37	Z37	X38	Y38	Z38	X39	Y39	Z39	X40	Y40	Z40	X41	Y41	Z41	X42	Y42	Z42	X43	Y43	Z43	X44	Y44	Z44	X45	Y45	Z45	X46	Y46	Z46	X47	Y47	Z47	X48	Y48	Z48	X49	Y49	Z49	X50	Y50	Z50	X51	Y51	Z51

1	0	-0.276024	1.67982	-0.602258	-0.115463	1.16535	-0.73998	-0.290019	1.20202	-0.630441	-0.165403	0.0331281	-0.928478	-0.191907	1.07508	-0.691489	-0.174353	1.08616	-0.68478	-0.219546	1.6585	-0.777914	-0.124378	1.618	-0.628629	-0.305421	0.117788	-0.87886	-0.356493	0.0754713	-0.818122	-0.258961	1.28079	-0.87033	-0.280245	1.28013	-0.794392	-0.128498	1.11907	-0.888284	-0.199027	1.366	-0.843776	-0.244488	0.60953	-0.828853	-0.285245	0.436543	-0.88569	-0.301347	0.317069	-0.885383	-0.210448	0.415505	-0.841764	-0.147772	0.897041	-0.804765	-0.162692	0.764378	-0.817112	-0.254722	0.915302	-0.805552	-0.269166	0.777915	-0.82614	-0.121043	0.0647239	-0.87229	-0.0775002	1.05584	-0.878683	-0.105106	1.04731	-0.90064	-0.16927	1.07632	-0.495318	-0.159025	1.07717	-0.502938	-0.191786	1.64821	-0.428321	-0.123061	1.616	-0.57747	-0.269121	1.2842	-0.309688	-0.279036	1.25996	-0.381508	-0.112728	1.13331	-0.299118	-0.195423	1.38142	-0.348437	-0.0482288	1.06379	-0.305192	-0.0742651	1.05044	-0.280539	-0.0915447	1.17451	-0.464338	-0.282502	1.19761	-0.541261	-0.158727	0.0420008	-0.267848	-0.292894	0.105893	-0.305515	-0.350978	0.0740024	-0.366245	-0.217523	0.608255	-0.365573	-0.217959	0.352754	-0.338236	-0.271892	0.473802	-0.3135	-0.285939	0.364239	-0.293089	-0.206756	0.464443	-0.349662	-0.151283	0.898953	-0.376381	-0.148867	0.789406	-0.365677	-0.212107	0.765239	-0.354672	-0.260465	0.896546	-0.403215	-0.261185	0.780467	-0.377855	-0.118895	0.0656288	-0.320824
2	0.01	-0.276555	1.67982	-0.602278	-0.115944	1.16558	-0.740345	-0.290341	1.20198	-0.630488	-0.165402	0.0331366	-0.928484	-0.192289	1.07522	-0.691654	-0.174753	1.08613	-0.684974	-0.22007	1.6587	-0.777875	-0.125034	1.61828	-0.628445	-0.305412	0.117807	-0.878862	-0.356513	0.0754892	-0.818129	-0.258802	1.28102	-0.871357	-0.28042	1.28011	-0.795465	-0.12596	1.12109	-0.888524	-0.1992	1.36648	-0.844524	-0.244448	0.609516	-0.828911	-0.285161	0.436428	-0.885774	-0.301254	0.31708	-0.885624	-0.210349	0.415463	-0.841768	-0.147903	0.897132	-0.804933	-0.162758	0.76444	-0.817181	-0.254839	0.915449	-0.805802	-0.269217	0.778008	-0.826356	-0.121045	0.0647152	-0.872281	-0.0742745	1.05854	-0.877864	-0.1013	1.05019	-0.900603	-0.169444	1.07638	-0.495507	-0.15952	1.0775	-0.502924	-0.192215	1.64844	-0.428284	-0.123582	1.61607	-0.577704	-0.26856	1.28436	-0.308819	-0.278724	1.25992	-0.380535	-0.109789	1.13574	-0.299841	-0.195137	1.38187	-0.348061	-0.0444652	1.06694	-0.306463	-0.0699864	1.05337	-0.28164	-0.0917204	1.17456	-0.464444	-0.282869	1.19774	-0.541173	-0.158716	0.0419951	-0.267849	-0.292971	0.105924	-0.305481	-0.350955	0.0740085	-0.366222	-0.217289	0.608553	-0.365036	-0.21792	0.352702	-0.338228	-0.271812	0.473701	-0.313591	-0.285901	0.364163	-0.293155	-0.206657	0.464457	-0.349781	-0.151428	0.898984	-0.376507	-0.148906	0.789487	-0.365765	-0.212229	0.765307	-0.354759	-0.260581	0.896524	-0.403399	-0.261281	0.780431	-0.378181	-0.118909	0.0656477	-0.320864
3	0.02	-0.277065	1.67981	-0.602347	-0.116182	1.16565	-0.740499	-0.290687	1.20196	-0.630555	-0.165399	0.0331493	-0.928487	-0.192647	1.07528	-0.691717	-0.175064	1.08612	-0.685052	-0.220564	1.65888	-0.777931	-0.12566	1.61853	-0.628378	-0.305402	0.117814	-0.878865	-0.356507	0.0754832	-0.818128	-0.258615	1.28136	-0.872642	-0.280719	1.28015	-0.796758	-0.123353	1.12313	-0.888414	-0.199331	1.36694	-0.84528	-0.244421	0.609526	-0.828978	-0.285104	0.436349	-0.885868	-0.301143	0.317026	-0.885737	-0.210259	0.41543	-0.841788	-0.148023	0.897256	-0.805136	-0.162831	0.764479	-0.817266	-0.254931	0.915522	-0.805947	-0.269292	0.778041	-0.826529	-0.121061	0.0646904	-0.87224	-0.0708993	1.06146	-0.876962	-0.0974947	1.05293	-0.900238	-0.16973	1.07642	-0.495578	-0.160069	1.07783	-0.502986	-0.192587	1.64864	-0.428348	-0.124142	1.61617	-0.577903	-0.267919	1.2846	-0.307937	-0.278399	1.25994	-0.379579	-0.106813	1.13828	-0.300632	-0.194823	1.38232	-0.347617	-0.0403735	1.07035	-0.308058	-0.0655887	1.05651	-0.282923	-0.0920117	1.17458	-0.464623	-0.28331	1.19787	-0.540971	-0.158715	0.0419908	-0.267862	-0.292948	0.105934	-0.305485	-0.350943	0.0740236	-0.366202	-0.217061	0.608899	-0.364521	-0.217828	0.352656	-0.338257	-0.27165	0.473672	-0.313699	-0.285815	0.364139	-0.293265	-0.206555	0.46444	-0.34987	-0.151571	0.899035	-0.376679	-0.149062	0.789588	-0.36582	-0.212339	0.765362	-0.354833	-0.260773	0.89655	-0.403535	-0.26137	0.780408	-0.378395	-0.118912	0.0656465	-0.320857
4	0.03	-0.277548	1.67981	-0.602419	-0.116355	1.16591	-0.740546	-0.291067	1.20193	-0.630711	-0.165395	0.033161	-0.928482	-0.192897	1.07544	-0.691871	-0.17531	1.08628	-0.685105	-0.221008	1.65904	-0.778032	-0.126281	1.61875	-0.628376	-0.3054	0.117803	-0.878863	-0.356499	0.0754716	-0.818128	-0.258404	1.28172	-0.874081	-0.281067	1.28026	-0.798211	-0.120636	1.12528	-0.888013	-0.199386	1.36739	-0.846102	-0.244401	0.609549	-0.829056	-0.285044	0.436306	-0.885966	-0.301037	0.316986	-0.885835	-0.210183	0.4154	-0.841815	-0.148139	0.897384	-0.805307	-0.162916	0.764523	-0.81736	-0.255036	0.915546	-0.806048	-0.269381	0.778029	-0.826664	-0.121067	0.0646799	-0.872214	-0.0673555	1.0646	-0.875989	-0.0935973	1.05563	-0.899578	-0.170019	1.07645	-0.495727	-0.16056	1.07819	-0.503143	-0.192913	1.64883	-0.428468	-0.124706	1.61628	-0.578111	-0.267208	1.28492	-0.306937	-0.278133	1.25993	-0.378525	-0.103733	1.14097	-0.301561	-0.194457	1.38279	-0.347063	-0.0360642	1.07414	-0.309914	-0.0610499	1.05989	-0.284406	-0.0923912	1.17462	-0.464848	-0.283783	1.19794	-0.540844	-0.158723	0.0420083	-0.267874	-0.292892	0.105961	-0.305505	-0.350936	0.0740455	-0.366184	-0.216882	0.609161	-0.36428	-0.21772	0.352641	-0.33831	-0.271451	0.473691	-0.313797	-0.285678	0.364194	-0.293376	-0.206464	0.464423	-0.349926	-0.151711	0.899029	-0.376937	-0.149252	0.789699	-0.365863	-0.212443	0.765413	-0.354911	-0.26102	0.896613	-0.403639	-0.26145	0.780403	-0.378518	-0.118907	0.0656347	-0.320825
5	0.04	-0.278003	1.67983	-0.602471	-0.116691	1.16647	-0.740483	-0.291481	1.20189	-0.630995	-0.165393	0.0331673	-0.92847	-0.193046	1.07574	-0.692162	-0.175498	1.08664	-0.685156	-0.221416	1.65917	-0.77809	-0.126893	1.61891	-0.628398	-0.305399	0.117778	-0.878867	-0.356506	0.0754733	-0.818131	-0.258153	1.28206	-0.875559	-0.281353	1.28039	-0.799705	-0.11776	1.12766	-0.887531	-0.199368	1.36783	-0.847037	-0.244377	0.60956	-0.829129	-0.284949	0.436287	-0.886062	-0.300959	0.317025	-0.886005	-0.210113	0.415374	-0.841836	-0.148268	0.897481	-0.805375	-0.16301	0.764608	-0.81745	-0.255195	0.915556	-0.806165	-0.269457	0.778014	-0.826796	-0.121046	0.0647023	-0.872237	-0.0636195	1.06793	-0.874948	-0.0894997	1.0585	-0.898723	-0.170262	1.07651	-0.496006	-0.160956	1.07859	-0.503378	-0.193199	1.64902	-0.428607	-0.12523	1.61637	-0.57835	-0.266446	1.2853	-0.305767	-0.277993	1.25986	-0.377404	-0.100524	1.14386	-0.302605	-0.194052	1.38328	-0.346357	-0.031705	1.07836	-0.311816	-0.0563937	1.06353	-0.286085	-0.0927986	1.17476	-0.465071	-0.284276	1.1979	-0.540925	-0.158736	0.0420468	-0.267876	-0.29289	0.106028	-0.305508	-0.350929	0.0740655	-0.366166	-0.216774	0.609248	-0.364399	-0.217651	0.352659	-0.338352	-0.271295	0.473739	-0.313844	-0.285527	0.364319	-0.293441	-0.206381	0.464425	-0.349966	-0.151894	0.898967	-0.37718	-0.149357	0.789802	-0.36591	-0.21255	0.765487	-0.35498	-0.261278	0.896688	-0.40371	-0.261532	0.780403	-0.378612	-0.118892	0.0656224	-0.320804
6	0.05	-0.27844	1.67988	-0.602554	-0.117239	1.16679	-0.740187	-0.291918	1.20184	-0.631332	-0.165392	0.0331718	-0.928459	-0.193297	1.07588	-0.692307	-0.175677	1.08696	-0.685085	-0.221822	1.6593	-0.77808	-0.127462	1.61899	-0.628466	-0.305377	0.117761	-0.878899	-0.356513	0.0754843	-0.81813	-0.257813	1.28241	-0.877098	-0.281556	1.28052	-0.801187	-0.114702	1.1303	-0.887127	-0.199358	1.36831	-0.848044	-0.24433	0.609553	-0.829183	-0.284823	0.436266	-0.886164	-0.300883	0.317088	-0.886166	-0.210031	0.41535	-0.841852	-0.14842	0.897547	-0.805362	-0.163106	0.764721	-0.817529	-0.255401	0.915563	-0.806277	-0.269504	0.778029	-0.826961	-0.121013	0.0647175	-0.872263	-0.0596735	1.07152	-0.873816	-0.0851614	1.06165	-0.897752	-0.170625	1.07662	-0.496138	-0.161403	1.07885	-0.503603	-0.193443	1.64919	-0.428774	-0.125744	1.61645	-0.578561	-0.265666	1.28567	-0.304511	-0.277921	1.25982	-0.376374	-0.0972556	1.14698	-0.303619	-0.193671	1.38379	-0.345513	-0.0273312	1.08292	-0.313579	-0.0516683	1.06737	-0.287973	-0.0932419	1.17496	-0.465259	-0.284822	1.19781	-0.541116	-0.158742	0.0420681	-0.267878	-0.292929	0.106091	-0.305493	-0.35092	0.0740772	-0.366143	-0.216705	0.609241	-0.364619	-0.217615	0.35268	-0.338353	-0.271209	0.473821	-0.313843	-0.285441	0.364435	-0.293454	-0.206277	0.464424	-0.350016	-0.152192	0.899058	-0.377171	-0.149385	0.789919	-0.365949	-0.212665	0.765582	-0.355004	-0.261531	0.896745	-0.403727	-0.261628	0.78038	-0.378724	-0.118861	0.0656159	-0.320809
7	0.06	-0.278872	1.67994	-0.602679	-0.117912	1.16656	-0.739771	-0.292399	1.20177	-0.631609	-0.165385	0.0331796	-0.928449	-0.193791	1.07568	-0.692187	-0.176	1.087	-0.684884	-0.222221	1.65945	-0.778063	-0.128027	1.61899	-0.628547	-0.30533	0.117762	-0.878949	-0.356505	0.0754915	-0.818122	-0.257347	1.28285	-0.878743	-0.281748	1.28065	-0.802704	-0.111478	1.13315	-0.88672	-0.199392	1.36886	-0.849053	-0.244247	0.609554	-0.829237	-0.284675	0.436219	-0.886284	-0.300746	0.317096	-0.886234	-0.209921	0.415325	-0.841877	-0.148603	0.897604	-0.805363	-0.163198	0.764819	-0.817588	-0.25562	0.915579	-0.806342	-0.269536	0.778082	-0.827167	-0.120988	0.0646813	-0.872235	-0.0555279	1.07541	-0.872575	-0.0805811	1.06506	-0.89669	-0.171222	1.07672	-0.496007	-0.161974	1.07887	-0.503736	-0.19365	1.6493	-0.428947	-0.126315	1.61651	-0.578691	-0.26491	1.28597	-0.30326	-0.27779	1.25985	-0.375389	-0.0939548	1.15031	-0.304594	-0.193331	1.38427	-0.344645	-0.0228647	1.08772	-0.315284	-0.0468757	1.07133	-0.290113	-0.0937947	1.17514	-0.465401	-0.285407	1.19772	-0.541301	-0.158731	0.0420491	-0.26788	-0.292926	0.106104	-0.305489	-0.350909	0.0740837	-0.366119	-0.21664	0.609232	-0.364746	-0.217561	0.352681	-0.338317	-0.271153	0.473907	-0.313836	-0.285456	0.364453	-0.293431	-0.206141	0.464411	-0.350083	-0.152591	0.899444	-0.376873	-0.149458	0.790094	-0.365964	-0.212778	0.765651	-0.355001	-0.261797	0.896759	-0.403698	-0.261731	0.780326	-0.378848	-0.118821	0.0656239	-0.320828
8	0.07	-0.279298	1.68001	-0.60275	-0.118591	1.16623	-0.73954	-0.292982	1.20171	-0.63176	-0.165372	0.0331918	-0.928438	-0.194397	1.07544	-0.692053	-0.176505	1.08693	-0.684742	-0.222597	1.65962	-0.778106	-0.128658	1.61892	-0.628537	-0.305276	0.117768	-0.878974	-0.356488	0.0754905	-0.818115	-0.256773	1.28332	-0.880433	-0.281965	1.28078	-0.804317	-0.1081	1.13615	-0.886139	-0.199363	1.36949	-0.850064	-0.244123	0.609582	-0.829335	-0.284481	0.436152	-0.886428	-0.300542	0.317052	-0.886254	-0.209789	0.415296	-0.841903	-0.148836	0.897684	-0.8054	-0.163286	0.764903	-0.817648	-0.255839	0.915617	-0.806396	-0.269596	0.778177	-0.827415	-0.12097	0.0646164	-0.872172	-0.0512005	1.07969	-0.871267	-0.0757609	1.06875	-0.895556	-0.171875	1.07681	-0.49587	-0.162521	1.07881	-0.503815	-0.193823	1.64938	-0.429077	-0.126933	1.61653	-0.578797	-0.264155	1.28616	-0.302036	-0.277576	1.25988	-0.374296	-0.0905584	1.15385	-0.305726	-0.192957	1.38472	-0.343909	-0.0182409	1.09284	-0.31718	-0.0419778	1.07547	-0.292496	-0.0944262	1.17529	-0.465529	-0.286002	1.19765	-0.541463	-0.158709	0.0420092	-0.267879	-0.292871	0.106079	-0.305502	-0.350897	0.0740897	-0.3661	-0.216572	0.609258	-0.36482	-0.217469	0.35266	-0.338284	-0.271092	0.473948	-0.313851	-0.285514	0.364364	-0.293397	-0.206008	0.4644	-0.350148	-0.15298	0.899922	-0.376543	-0.149621	0.790312	-0.365988	-0.212871	0.765666	-0.355035	-0.26208	0.89672	-0.403673	-0.261842	0.78027	-0.378951	-0.118791	0.0656383	-0.320848
